<svg xmlns="http://www.w3.org/2000/svg" width="23" height="23" viewBox="0 0 23 23" fill="none">
  <path d="M22.0859 1.67725V6.67725C22.0861 6.87514 22.0275 7.06863 21.9177 7.23323C21.8078 7.39782 21.6516 7.52612 21.4687 7.60187C21.2859 7.67762 21.0847 7.69743 20.8906 7.65878C20.6965 7.62013 20.5183 7.52476 20.3784 7.38475L15.3784 2.38475C15.2384 2.24489 15.1431 2.06664 15.1044 1.87255C15.0658 1.67847 15.0856 1.47728 15.1613 1.29446C15.2371 1.11163 15.3654 0.955397 15.53 0.845526C15.6946 0.735655 15.888 0.677091 16.0859 0.677246H21.0859C21.3512 0.677246 21.6055 0.782603 21.793 0.97014C21.9806 1.15768 22.0859 1.41203 22.0859 1.67725ZM1.79344 15.9697C1.65358 15.8297 1.47533 15.7344 1.28124 15.6957C1.08716 15.6571 0.885971 15.6769 0.703148 15.7526C0.520325 15.8284 0.364088 15.9567 0.254217 16.1213C0.144347 16.2859 0.0857821 16.4794 0.0859378 16.6772V21.6772C0.0859378 21.9425 0.191295 22.1968 0.378831 22.3844C0.566368 22.5719 0.820721 22.6772 1.08594 22.6772H6.08594C6.28383 22.6774 6.47733 22.6188 6.64192 22.509C6.80651 22.3991 6.93481 22.2429 7.01056 22.06C7.08631 21.8772 7.10612 21.676 7.06747 21.4819C7.02882 21.2879 6.93345 21.1096 6.79344 20.9697L1.79344 15.9697ZM21.4684 15.7535C21.2857 15.6777 21.0847 15.6578 20.8906 15.6963C20.6966 15.7348 20.5184 15.8299 20.3784 15.9697L15.3784 20.9697C15.2384 21.1096 15.1431 21.2879 15.1044 21.4819C15.0658 21.676 15.0856 21.8772 15.1613 22.06C15.2371 22.2429 15.3654 22.3991 15.53 22.509C15.6946 22.6188 15.888 22.6774 16.0859 22.6772H21.0859C21.3512 22.6772 21.6055 22.5719 21.793 22.3844C21.9806 22.1968 22.0859 21.9425 22.0859 21.6772V16.6772C22.0859 16.4795 22.0272 16.2861 21.9173 16.1217C21.8074 15.9573 21.6512 15.8291 21.4684 15.7535ZM6.08594 0.677246H1.08594C0.820721 0.677246 0.566368 0.782603 0.378831 0.97014C0.191295 1.15768 0.0859378 1.41203 0.0859378 1.67725V6.67725C0.0857821 6.87514 0.144347 7.06863 0.254217 7.23323C0.364088 7.39782 0.520325 7.52612 0.703148 7.60187C0.885971 7.67762 1.08716 7.69743 1.28124 7.65878C1.47533 7.62013 1.65358 7.52476 1.79344 7.38475L6.79344 2.38475C6.93345 2.24489 7.02882 2.06664 7.06747 1.87255C7.10612 1.67847 7.08631 1.47728 7.01056 1.29446C6.93481 1.11163 6.80651 0.955397 6.64192 0.845526C6.47733 0.735655 6.28383 0.677091 6.08594 0.677246Z" fill="white"/>
</svg>
